Coordinates
version=1
nRows=6
nColumns=34
inDegrees=yes

Units are S.I. units (second, meters, Newtons, ...)
If the header above contains a line with 'inDegrees', this indicates whether rotational values are in degrees (yes) or radians (no).

endheader
time	pelvis_tilt	pelvis_list	pelvis_rotation	pelvis_tx	pelvis_ty	pelvis_tz	hip_flexion_l	hip_adduction_l	hip_rotation_l	hip_flexion_r	hip_adduction_r	hip_rotation_r	knee_angle_l_beta	knee_angle_r_beta	knee_angle_l	knee_angle_r	ankle_angle_l	ankle_angle_r	subtalar_angle_l	subtalar_angle_r	mtp_angle_l	mtp_angle_r	lumbar_ext	lumbar_bend	lumbar_rota	shoulder_flexion_r	shoulder_adduction_r	shoulder_rotation_r	elbow_flexion_r	shoulder_flexion_l	shoulder_adduction_l	shoulder_rotation_l	elbow_flexion_l
      0.46000000	     26.39500668	      5.19894306	      0.25579701	      0.28430801	      0.98821405	     -0.27812270	    -35.07282318	      5.84907256	      1.83391067	     -4.33099232	    -11.87165056	    -18.51566847	      0.11795541	      0.50971400	     -6.75834690	    -29.20446076	      9.78006178	      3.62034100	      1.16658954	      4.83908809	      2.22951470	      1.92110984	    -43.72609633	     -3.65738727	     -2.98989618	    -10.32664099	      0.88799186	    -23.28702727	     45.51847352	      9.96582740	     -2.74296952	      1.72796637	     51.59907854
      0.47000000	     26.42571719	      4.88291737	      0.21007554	      0.29666939	      0.98657043	     -0.27706995	    -36.14054551	      5.46807468	      1.50215267	     -4.45246137	    -11.15535469	    -18.58480278	      0.10991637	      0.43488519	     -6.29774430	    -24.91708615	     10.19342968	      3.26248578	      1.51806560	      4.76274529	      2.32099115	      1.78326704	    -43.76164454	     -3.21289650	     -2.52527268	    -11.25383615	      0.93286558	    -24.46312910	     45.94026163	     11.02772403	     -2.92112381	      2.40048523	     51.95415917
      0.48000000	     26.10502123	      4.68920584	      0.08668335	      0.30911106	      0.98434968	     -0.27582595	    -36.76715964	      5.28053115	      1.24925478	     -4.19941287	    -10.56840088	    -18.36653605	      0.10428002	      0.36261910	     -5.97480506	    -20.77654423	     10.59768552	      2.88297371	      1.52471168	      4.98291698	      2.37555006	      1.57185273	    -43.44450202	     -2.95096945	     -2.33477424	    -11.85795962	      0.96653089	    -25.44615352	     45.89388314	     11.82289612	     -3.11563891	      2.58446555	     52.54740738
      0.49000000	     26.23737611	      4.43235762	      0.04899022	      0.32170767	      0.98248458	     -0.27455565	    -37.92104551	      4.93430507	      0.81652033	     -4.61052253	     -9.83367851	    -18.01832342	      0.09779548	      0.28965879	     -5.60326810	    -16.59622635	     11.02509854	      2.13906545	      2.11518767	      4.75864661	      2.57732373	      1.31458185	    -43.57509756	     -2.56151894	     -1.86540430	    -12.74917068	      1.05089133	    -26.49555126	     46.37615084	     12.84216121	     -3.21949103	      3.07757825	     52.86077303
      0.50000000	     26.11854460	      4.35337590	     -0.06496350	      0.33440455	      0.98013193	     -0.27308626	    -38.73077316	      4.80459595	      0.42604144	     -4.68823281	     -9.33516964	    -17.37130905	      0.09409438	      0.22444491	     -5.39121062	    -12.85974610	     11.43798080	      1.44480619	      2.53698789	      4.70081239	      2.79495517	      0.93619131	    -43.44057551	     -2.39677124	     -1.55821626	    -13.44979718	      1.15023559	    -27.45832606	     46.53757138	     13.71309641	     -3.33727100	      3.34463018	     53.26477062
      0.51000000	     25.72354310	      4.59481363	     -0.23483681	      0.34711855	      0.97735877	     -0.27159331	    -39.15295259	      5.01669621	      0.32708692	     -4.33337253	     -9.29636580	    -16.57297239	      0.09377801	      0.17111046	     -5.37308435	     -9.80390711	     11.76632579	      1.07418771	      2.65120653	      5.19039975	      2.85718508	      0.67065467	    -43.02792344	     -2.53714637	     -1.63246586	    -13.91764726	      1.20386780	    -28.07643182	     46.43141334	     14.37303723	     -3.53667945	      3.35181327	     53.76686503
